<svg version="1.2" xmlns="http://www.w3.org/2000/svg" viewBox="0 0 1513 191" width="1513" height="191">
	<title>logo (19)-svg</title>
	<defs>
		<clipPath clipPathUnits="userSpaceOnUse" id="cp1">
			<path d="m0 1h1512.39v190h-1512.39z"/>
		</clipPath>
	</defs>
	<style>
		.s0 { fill: #e61b14 } 
		.s1 { fill: #231f20 } 
	</style>
	<g id="Clip-Path" clip-path="url(#cp1)">
		<g id="Layer">
			<path id="Layer" fill-rule="evenodd" class="s0" d="m167.7 3.4v185.2h-35.8v-78.2h-96.1v78.2h-35.8v-185.2h35.8v77.9h96.1v-77.9zm79.8 59q27.3 0 43.3 17.5 15.9 17.5 15.9 48.4v4.9h-87.7q2 16.6 12.4 25.5 10.4 9 28.6 9 11.7 0 22.5-4.1 10.8-4 22.3-12.2v24.2q-21.7 15.4-52.8 15.4-29.3 0-47.8-17.6-18.6-17.7-18.6-47 0-28.2 17.2-46.1 17.1-17.9 44.7-17.9zm28.5 51q-1.3-13.5-8.2-21.1-6.9-7.6-18.9-7.6-12.4 0-19.9 7.3-7.5 7.2-9.4 21.4zm95.3-51q23.9 0 36.4 10.1 12.6 10.2 12.6 28.3v60.6q0 7.1 5.7 7.1 2.4 0 6.7-2.1 4.4-2.1 7.3-4.7v18.8q-17.1 10.5-31.3 10.5-8.8 0-13.5-2.9-4.7-2.9-6.5-10.4-18.7 13.3-37.6 13.3-13.4 0-23-9-9.6-9-9.6-21.6 0-16.1 9.6-25.4 9.5-9.2 33.4-16.1l26.4-7.7v-5.7q0-18.2-22-18.2-11.3 0-22.5 5.2-11.1 5.2-20.2 15.2v-29.3q20.2-16 48.1-16zm-19.9 93.1q0 6.7 4.3 10.8 4.3 4.2 10.7 4.2 10.7 0 21.5-9.9v-32.6q-13.7 4.7-21.5 8.8-7.7 4.1-11.4 8.3-3.6 4.3-3.6 10.4zm102.1-152.1h32.6v185.2h-32.6zm94.8 28.5h2.7v32.9h42.4v24.7h-42.4v57.1q0 8.4 5 13.5 5 5.2 13.8 5.2 11.4 0 26.2-8.2v26.1q-17.6 7.8-33.1 7.8-21 0-32.7-11.4-11.7-11.4-11.7-30.9v-59.2h-19.4v-5.3zm93.5-28.6v78.8h0.8q15.8-19.7 38-19.7 19.8 0 31.9 12.9 12 13 12 34v79.3h-32.4v-73.1q-0.1-12.4-5.9-19.8-5.9-7.4-16.2-7.4-7.4 0-13.9 4.3-6.6 4.2-14.3 14v82h-32.6v-185.3z"/>
			<path id="Layer" fill-rule="evenodd" class="s1" d="m843 12.7v15.7q-24.1-14.1-41.5-14.1-16.7 0-27.9 10.1-11.2 10.1-11.2 25.1 0 10.8 6.6 19.4 6.7 8.6 27.7 16.6 21.1 7.9 30.8 13.2 9.7 5.3 16.4 15.4 6.8 10.1 6.8 26.1 0 21.4-15.6 36.1-15.7 14.7-38.2 14.7-23.1 0-47.5-16.2v-16.8q26.9 19.7 46.7 19.7 16.4 0 27.7-10.6 11.4-10.7 11.4-26.2 0-11.8-7-21.3-7.1-9.5-28.5-17.7-21.5-8.3-30.7-13.3-9.3-5-15.7-14.4-6.4-9.3-6.4-24 0-20.4 15.6-34.8 15.7-14.4 37.7-14.4 21.6 0 42.8 11.7zm54.1 13.5v40.4h34.2v10.6h-34.2v72.6q0 17.5 2.9 23 2.8 5.5 15.3 5.5 9.5 0 22.3-6v12.5q-12.9 6.2-25.2 6.2-12.1 0-20.2-6.9-8.1-6.9-8.1-19.1v-87.8h-32.9v-10.6h32.9v-29l8.9-11.4zm137.1 52.5l-7.5 12.2q-15.3-13.9-24.6-13.9-18.3 0-39.1 35v76.6h-13v-122h13v32.1h0.5q21.9-34.5 42.7-34.5 12 0 28 14.5zm104.5 44.4h-96.1q-0.4 3.2-0.4 6.4 0 20.4 14.6 34.6 14.6 14.2 34.4 14.2 23.2 0 45.4-18.2v14.7q-21 16.2-47 16.2-26.3 0-43.6-18.3-17.2-18.3-17.2-46.5 0-26.8 15.9-44.4 15.9-17.6 40-17.6 22.7 0 38.4 15.9 15.6 15.8 15.6 43zm-94.4-10.5h79q-6.9-35.6-38.6-35.6-14.9 0-25.9 9.3-10.9 9.4-14.5 26.3zm212.5 54.8v10.9q-16.8 12.7-24.6 12.7-4.5 0-6.2-3-1.8-3-2.6-12.1-19.2 15.1-38.1 15.1-13.8 0-23.4-9-9.5-9-9.5-21.9 0-19.9 18.4-31.4 18.4-11.4 52.6-13.1v-15.6q0-24.9-27-24.9-17.3 0-37.3 15.5v-13.4q20.7-13 39.4-13 16.6 0 27.3 8.2 10.8 8.1 10.8 23.7v75.9q0 6.3 2.9 6.3 3.7 0 17.3-10.9zm-33.4-2.9v-38.1q-25-0.9-41.5 8.8-16.5 9.8-16.5 24.9 0 8.5 6.9 14.3 6.9 5.9 17.2 5.9 16.7 0 33.9-15.8zm58.9-97.9v21.5h0.5q14.9-23.9 38.9-23.9 28 0 39.4 29.3 17.2-29.3 42.4-29.3 19 0 30.6 13.6 11.7 13.5 11.7 35.9v74.9h-13v-69.2q0-19.8-8.4-31.1-8.3-11.3-23.4-11.3-11.3 0-19.6 6.7-8.4 6.8-17.3 21.8v83.1h-13.1v-69.5q0-20.3-8.7-31.2-8.7-10.9-23.3-10.9-21.2 0-36.7 26.1v85.5h-13v-122zm179.9 95.7h22.1v3.4h-9.2v23.1h-3.8v-23.1h-9.1zm46.7 0h3.5v26.4h-3.8v-20.5l-8.1 10.2h-0.7l-8.2-10.2v20.5h-3.8v-26.4h3.6l8.7 10.9z"/>
		</g>
	</g>
</svg>