<svg width="271" height="92" viewBox="0 0 271 92" fill="none" xmlns="http://www.w3.org/2000/svg">
<path fill-rule="evenodd" clip-rule="evenodd" d="M73.7393 19.8145H73.8164L73.8906 19.834C74.2912 19.9392 74.578 20.2775 74.7607 20.5303C74.9662 20.8145 75.1588 21.164 75.3301 21.498C75.417 21.6675 75.5021 21.8401 75.583 22.0039C75.6647 22.1692 75.742 22.3251 75.8164 22.4697C75.9459 22.7214 76.0489 22.899 76.127 23.0078C77.3589 23.7719 78.5153 24.7378 79.5293 26.1084L82.4912 30.0996C86.2298 35.1378 90.0422 39.7206 94.2139 43.8408C96.7798 46.3746 99.1509 48.7514 101.707 51.6699L105.921 49.1709C109.424 47.0936 110.801 45.7526 111.826 44.626C112.883 43.4645 113.652 42.4283 115.864 41.0889C117.372 40.1739 118.827 40.8155 119.95 41.6592L120.171 41.8301L124.676 45.4482L124.743 45.5029L124.793 45.5742L134.712 59.8574L134.219 60.2002L133.726 60.542L132.407 58.6436L134.219 60.2002L128.236 55.0586L128.971 56.0859L128.483 56.4355L127.995 56.7842L125.861 53.8008C125.167 53.109 124.436 52.3077 123.763 51.6191C123.053 50.8934 122.353 50.2353 121.634 49.7314C120.244 48.7575 118.919 47.8726 117.462 46.6709L113.882 49.96C112.853 50.905 112.142 51.6314 111.567 52.2188C110.999 52.8002 110.538 53.272 110.039 53.6709C109.107 54.4152 108.067 54.8789 105.943 55.5303C106.226 55.9701 106.64 56.4654 107.167 56.9961C107.931 57.7656 108.88 58.5658 109.868 59.3281C111.844 60.852 113.934 62.1956 114.912 62.8164C118.689 65.2137 122.309 67.6563 125.92 70.666C126.874 71.461 128.257 72.1557 129.034 73.9727L129.659 75.4316L119.693 70.6953C117.731 69.7625 116.2 69.1538 114.881 68.6387C113.567 68.1256 112.436 67.6946 111.316 67.127C109.05 65.978 106.866 64.2882 103.074 60.2666L94.7979 51.4844C93.0947 49.6787 91.3525 48.0607 89.6035 46.3828C87.8603 44.7104 86.1199 42.9869 84.457 40.9971L84.4561 40.9961C83.9415 40.3796 83.1882 39.2902 82.3535 38.0703C81.5093 36.8365 80.5664 35.4468 79.6533 34.1914C78.7344 32.928 77.8724 31.8377 77.1904 31.1875C76.9262 30.9356 76.7243 30.7852 76.585 30.707C75.4948 35.8611 73.5747 40.343 70.9521 43.9717C69.1611 46.4506 67.4719 49.0614 66.335 52.292C66.4581 52.2277 66.5819 52.1658 66.7031 52.1016C67.2118 51.832 67.7168 51.5609 68.2188 51.3291C69.2339 50.8603 70.2921 50.5261 71.5547 50.625L72.3984 50.6914L72.0566 51.4658C71.2659 53.2569 70.2571 54.2529 69.2666 55.3457L63.3623 61.8701C58.7999 66.9112 54.2599 71.0323 49.2812 74.7012L49.2207 74.7461L49.1504 74.7744L40.1562 78.4209L44.2383 71.7402L44.293 71.6494L44.376 71.584L54.7402 63.3164C57.1045 61.4293 58.9866 58.5975 60.4268 55.1885L63.4512 48.0322C64.9465 44.4929 66.6167 41.5505 68.7402 38.8691C71.2877 35.6492 72.7436 30.7601 72.3613 25.4697L66.4062 25.3828C66.3893 25.393 66.3556 25.4139 66.3057 25.458C66.1919 25.5584 66.056 25.7156 65.9102 25.915C65.62 26.3119 65.3522 26.7938 65.2129 27.0947L63.3174 31.1943C62.346 33.2968 61.042 36.1114 59.5459 38.5146C58.7976 39.7167 57.9895 40.8352 57.1367 41.7178C56.2903 42.5938 55.3569 43.2827 54.3506 43.5488L53.3076 43.8242L53.623 42.793C55.3284 37.2201 57.6037 32.5596 59.9248 27.877C59.737 27.887 59.6083 27.9609 59.5518 28.0322L59.5508 28.0332L53.4336 35.7256C48.4712 41.9653 43.1699 47.1021 37.3906 51.4072C36.12 52.3539 35.0589 52.6484 34.1367 52.335C33.2684 52.0397 32.7277 51.2575 32.3418 50.6514C32.1283 50.316 31.9657 50.0358 31.7832 49.7754C31.6034 49.5189 31.4557 49.3607 31.3262 49.2754C31.2216 49.2066 31.133 49.1863 31.0088 49.2139C30.8538 49.2484 30.6004 49.3693 30.2275 49.707C26.8895 52.7293 23.6249 56.0575 20.3896 59.3916C20.0657 59.7245 19.6883 59.9373 19.2793 60.0107C18.8719 60.0839 18.4769 60.0107 18.127 59.8486C17.442 59.5313 16.9016 58.8637 16.6064 58.1064L16.5029 57.8652C16.2614 57.3526 16.0224 57.1826 15.8779 57.1396C15.7394 57.0985 15.4772 57.1169 15.0703 57.4941L15.0488 57.5137L15.0264 57.5312L5.09082 65.124L4.30664 64.2188C4.63796 63.8947 5.46054 62.8942 6.56836 61.5166C7.65921 60.1601 8.99969 58.4731 10.3359 56.8311C11.6719 55.1893 13.0145 53.5787 14.1133 52.3691C14.6612 51.766 15.1585 51.2513 15.5703 50.8799C15.7755 50.6949 15.9715 50.5338 16.1504 50.4141C16.3055 50.3102 16.5343 50.177 16.7861 50.1562L16.9072 50.1533C17.1816 50.1665 17.4024 50.3006 17.5508 50.4189C17.7262 50.5589 17.8813 50.7414 18.0137 50.9189C18.2753 51.2699 18.5474 51.7391 18.7793 52.1133C19.0136 52.4912 19.2064 52.765 19.3613 52.918C20.8764 51.2695 22.3789 49.8763 24.0264 48.6641C24.4818 48.3297 24.9111 47.92 25.3691 47.4736C25.8173 47.0369 26.2979 46.5613 26.8184 46.1484L30.2891 43.3984L30.4844 43.25C30.9363 42.92 31.3658 42.7054 31.7822 42.6133C32.2756 42.5041 32.7213 42.5734 33.1104 42.7764C33.4828 42.9707 33.7722 43.2706 34.0029 43.5713C34.2338 43.8721 34.4345 44.2131 34.6123 44.5186C34.7979 44.8373 34.9571 45.1154 35.125 45.3496C35.2944 45.5858 35.435 45.7213 35.5537 45.7881C35.6463 45.8402 35.7418 45.8615 35.8936 45.8174C36.0729 45.7652 36.3465 45.6143 36.7314 45.25C40.2032 41.9641 43.6788 39.2467 46.8555 35.4648L57.2373 23.0908C57.6047 22.6532 58.1527 22.0878 58.7236 21.665C59.008 21.4545 59.3229 21.2607 59.6426 21.1436C59.9551 21.029 60.3513 20.9597 60.7373 21.1172L62.5049 21.8369C62.5373 21.7864 62.5741 21.7343 62.6104 21.6777C62.7584 21.4468 62.9314 21.18 63.1113 20.9287C63.2885 20.6814 63.4889 20.4264 63.6963 20.2275C63.8004 20.1277 63.9214 20.0269 64.0557 19.9492C64.1872 19.8732 64.3671 19.7988 64.5791 19.7988L73.7393 19.8145ZM16.7939 57.167C16.8795 57.2907 16.9603 57.4329 17.0371 57.5938C16.9221 57.3529 16.797 57.1542 16.6631 56.9961C16.7076 57.0486 16.7514 57.1054 16.7939 57.167ZM11.7988 55.9922C11.678 56.1385 11.5581 56.2872 11.4365 56.4355C11.6202 56.2114 11.8028 55.9889 11.9844 55.7695L11.7988 55.9922ZM27.3232 51.5918C27.1653 51.7427 27.0092 51.896 26.8516 52.0479C27.0609 51.8462 27.2696 51.6443 27.4795 51.4443L27.3232 51.5918ZM26.4756 47.2402C26.2434 47.4572 26.016 47.6812 25.7881 47.9033L26.4756 47.2402C26.5916 47.1318 26.7094 47.0248 26.8281 46.9209L26.4756 47.2402ZM66.3066 24.7861C66.2817 24.7897 66.2564 24.796 66.2305 24.8047C66.256 24.7962 66.2812 24.7906 66.3057 24.7871C66.3232 24.7846 66.3404 24.783 66.3574 24.7832C66.3408 24.783 66.3238 24.7837 66.3066 24.7861ZM74.2412 20.8398C74.3303 20.959 74.4201 21.0959 74.5078 21.2451C74.4303 21.1133 74.3532 20.9898 74.2744 20.8809C74.264 20.8665 74.2516 20.8538 74.2412 20.8398Z" fill="#161613"/>
<path fill-rule="evenodd" clip-rule="evenodd" d="M77.4912 37.6055C78.2011 37.834 78.6968 38.2652 79.0527 38.6836C79.3794 39.0677 79.6531 39.5265 79.8379 39.8193C81.6398 42.6735 83.4234 45.2914 85.374 48.0703L86.6113 49.834L84.5283 50.3828C84.3207 50.4375 84.1193 50.4579 83.9277 50.458C84.4015 51.2477 84.8822 52.0946 85.2871 52.7559C85.8997 53.7563 86.4854 54.5913 87.125 55.2109L87.6328 55.6904C90.1805 58.0325 92.854 59.5817 95.9014 61.6885L96.5479 62.1357V63.834L95.7412 64.2539C95.0262 64.6262 94.3136 64.6515 93.7295 64.5723C93.1835 64.4982 92.6562 64.3163 92.3076 64.2012C89.8044 63.3743 87.7384 62.6634 85.8975 61.2861C84.0319 59.8905 82.5079 57.9031 80.7979 54.7305L77.252 48.1514C77.1059 47.8808 76.9102 47.4539 76.7607 47.0117C76.6853 46.7885 76.6106 46.5283 76.5645 46.2617C76.5231 46.0225 76.4792 45.6435 76.5703 45.2422L76.5713 45.2393L77.0361 43.21C76.5644 42.095 75.9894 40.8827 75.5859 39.4355L74.8379 36.752L77.4912 37.6055Z" fill="#161613"/>
<path d="M86.5879 17.0107C94.7583 17.0107 101.384 23.6353 101.384 31.8057C101.384 36.1427 99.5165 39.982 96.543 42.6299C92.4157 39.0857 80.3377 24.0281 79.5342 22.6045C78.8987 21.479 77.7213 20.9813 77.0312 20.6729C79.6042 18.3934 82.9575 17.0108 86.5879 17.0107Z" fill="#E15B3D"/>
<mask id="path-3-outside-1_3119_1208" maskUnits="userSpaceOnUse" x="146.221" y="10.2578" width="106" height="35" fill="black">
<rect fill="white" x="146.221" y="10.2578" width="106" height="35"/>
<path d="M154.581 29.9378H152.781V40.1378C152.781 41.5378 153.381 42.0578 154.861 42.2178V43.6978H147.221V42.2178C148.421 42.0978 148.901 41.6578 148.901 40.5378V15.6578C148.901 14.5378 148.421 14.0978 147.221 13.9778V12.4978H154.101C159.101 12.4978 162.621 16.0578 162.621 21.0178C162.621 26.3378 159.381 29.9378 154.581 29.9378ZM152.781 28.0978H154.061C157.021 28.0978 158.581 25.7778 158.581 21.2178C158.581 17.0578 156.781 14.3778 154.101 14.3778H152.781V28.0978Z"/>
<path d="M168.822 44.1378C164.742 44.1378 162.022 39.8578 162.022 33.3778C162.022 26.6978 164.902 22.2178 169.222 22.2178C173.302 22.2178 176.022 26.4578 176.022 32.9378C176.022 39.6578 173.142 44.1378 168.822 44.1378ZM169.222 42.2578C171.182 42.2578 172.222 39.2978 172.222 33.6978C172.222 27.6578 170.942 24.0578 168.822 24.0578C166.862 24.0578 165.822 27.0178 165.822 32.6178C165.822 38.6578 167.102 42.2578 169.222 42.2578Z"/>
<path d="M182.297 40.6578C182.297 41.8578 182.617 42.2178 183.937 42.3778V43.6978H177.377V42.3778C178.377 42.2178 178.697 41.8178 178.697 40.7378V25.3778L177.457 24.6578V23.6178L181.137 22.2178H182.457L182.337 26.9778C183.297 24.1778 184.577 22.2178 185.937 22.2178C186.457 22.2178 186.777 22.3778 186.977 22.6978V26.5378H186.177C184.497 26.5378 183.217 27.2978 182.297 28.7778V40.6578Z"/>
<path d="M191.804 18.3378H193.204V22.6178H196.444V25.0178H193.204V39.2978C193.204 40.8178 194.004 41.7378 195.324 41.7378C196.044 41.7378 196.524 41.5778 197.084 41.1778V43.0978C196.164 43.8578 195.364 44.1378 194.044 44.1378C191.364 44.1378 189.604 42.3378 189.604 39.5778V25.0178H187.604V23.6178C189.724 22.0178 190.764 20.6178 191.804 18.3378Z"/>
<path d="M204.275 43.6978H198.035V42.3778C199.035 42.2178 199.355 41.8178 199.355 40.7378V14.5378L198.115 13.8178V12.8178L201.795 11.2578H203.115L202.955 15.2578V40.7378C202.955 41.8178 203.275 42.2178 204.275 42.3778V43.6978Z"/>
<path d="M217.098 43.9778C215.578 43.9778 214.578 42.8978 214.418 41.2178C213.578 43.1378 212.138 44.1378 210.178 44.1378C207.418 44.1378 205.498 41.9378 205.498 38.8578C205.498 35.6178 206.778 33.8978 210.498 32.2578L213.978 30.7378V28.1378C213.978 25.3378 213.218 24.0578 211.618 24.0578C210.218 24.0578 209.418 25.1378 209.418 27.1778V29.3778H207.018C206.458 28.9778 206.018 28.0578 206.018 27.2178C206.018 24.3378 208.458 22.2178 211.858 22.2178C215.258 22.2178 217.578 24.6178 217.578 28.1778V40.4978C217.578 41.1378 217.938 41.5378 218.498 41.5378C218.818 41.5378 219.178 41.4178 219.458 41.2178V42.8578C218.938 43.5778 218.098 43.9778 217.098 43.9778ZM209.138 38.0178C209.138 39.9778 210.218 41.3378 211.698 41.3378C212.698 41.3378 213.538 40.5778 213.978 39.4978V32.5778L211.898 33.5378C210.098 34.3778 209.138 35.8578 209.138 38.0178Z"/>
<path d="M230.938 27.4978C230.938 25.8978 230.218 25.0578 228.858 25.0578C227.698 25.0578 226.378 25.6978 225.578 26.6578V40.7378C225.578 41.8178 225.898 42.2178 226.898 42.3778V43.6978H220.658V42.3778C221.658 42.2178 221.978 41.8178 221.978 40.7378V25.3778L220.738 24.6578V23.6178L224.418 22.2178H225.738L225.618 25.0178C226.978 23.2178 228.578 22.2178 230.178 22.2178C232.938 22.2178 234.538 23.9778 234.538 27.0178V40.7378C234.538 41.8578 234.858 42.2178 235.858 42.3778V43.6978H229.618V42.3778C230.618 42.2178 230.938 41.8178 230.938 40.7378V27.4978Z"/>
<path d="M246.589 23.6978V14.5378L245.389 13.8178V12.8178L249.069 11.2578H250.389L250.189 15.2578V40.0178C250.189 40.8178 250.469 41.1778 251.189 41.3378L251.549 41.4178V42.7378L247.629 44.1378H246.629L246.749 40.7378C245.909 42.8178 244.269 44.1378 242.549 44.1378C238.949 44.1378 236.709 39.9778 236.709 33.2978C236.709 26.8578 239.509 22.2178 243.429 22.2178C244.669 22.2178 245.949 22.8178 246.589 23.6978ZM240.509 32.7378C240.509 38.3378 241.629 41.3378 243.669 41.3378C244.789 41.3378 245.749 40.6178 246.589 39.0978V27.4178C246.589 25.4178 245.549 24.1378 243.829 24.1378C241.629 24.1378 240.509 27.0578 240.509 32.7378Z"/>
</mask>
<path d="M154.581 29.9378H152.781V40.1378C152.781 41.5378 153.381 42.0578 154.861 42.2178V43.6978H147.221V42.2178C148.421 42.0978 148.901 41.6578 148.901 40.5378V15.6578C148.901 14.5378 148.421 14.0978 147.221 13.9778V12.4978H154.101C159.101 12.4978 162.621 16.0578 162.621 21.0178C162.621 26.3378 159.381 29.9378 154.581 29.9378ZM152.781 28.0978H154.061C157.021 28.0978 158.581 25.7778 158.581 21.2178C158.581 17.0578 156.781 14.3778 154.101 14.3778H152.781V28.0978Z" fill="#161613"/>
<path d="M168.822 44.1378C164.742 44.1378 162.022 39.8578 162.022 33.3778C162.022 26.6978 164.902 22.2178 169.222 22.2178C173.302 22.2178 176.022 26.4578 176.022 32.9378C176.022 39.6578 173.142 44.1378 168.822 44.1378ZM169.222 42.2578C171.182 42.2578 172.222 39.2978 172.222 33.6978C172.222 27.6578 170.942 24.0578 168.822 24.0578C166.862 24.0578 165.822 27.0178 165.822 32.6178C165.822 38.6578 167.102 42.2578 169.222 42.2578Z" fill="#161613"/>
<path d="M182.297 40.6578C182.297 41.8578 182.617 42.2178 183.937 42.3778V43.6978H177.377V42.3778C178.377 42.2178 178.697 41.8178 178.697 40.7378V25.3778L177.457 24.6578V23.6178L181.137 22.2178H182.457L182.337 26.9778C183.297 24.1778 184.577 22.2178 185.937 22.2178C186.457 22.2178 186.777 22.3778 186.977 22.6978V26.5378H186.177C184.497 26.5378 183.217 27.2978 182.297 28.7778V40.6578Z" fill="#161613"/>
<path d="M191.804 18.3378H193.204V22.6178H196.444V25.0178H193.204V39.2978C193.204 40.8178 194.004 41.7378 195.324 41.7378C196.044 41.7378 196.524 41.5778 197.084 41.1778V43.0978C196.164 43.8578 195.364 44.1378 194.044 44.1378C191.364 44.1378 189.604 42.3378 189.604 39.5778V25.0178H187.604V23.6178C189.724 22.0178 190.764 20.6178 191.804 18.3378Z" fill="#161613"/>
<path d="M204.275 43.6978H198.035V42.3778C199.035 42.2178 199.355 41.8178 199.355 40.7378V14.5378L198.115 13.8178V12.8178L201.795 11.2578H203.115L202.955 15.2578V40.7378C202.955 41.8178 203.275 42.2178 204.275 42.3778V43.6978Z" fill="#161613"/>
<path d="M217.098 43.9778C215.578 43.9778 214.578 42.8978 214.418 41.2178C213.578 43.1378 212.138 44.1378 210.178 44.1378C207.418 44.1378 205.498 41.9378 205.498 38.8578C205.498 35.6178 206.778 33.8978 210.498 32.2578L213.978 30.7378V28.1378C213.978 25.3378 213.218 24.0578 211.618 24.0578C210.218 24.0578 209.418 25.1378 209.418 27.1778V29.3778H207.018C206.458 28.9778 206.018 28.0578 206.018 27.2178C206.018 24.3378 208.458 22.2178 211.858 22.2178C215.258 22.2178 217.578 24.6178 217.578 28.1778V40.4978C217.578 41.1378 217.938 41.5378 218.498 41.5378C218.818 41.5378 219.178 41.4178 219.458 41.2178V42.8578C218.938 43.5778 218.098 43.9778 217.098 43.9778ZM209.138 38.0178C209.138 39.9778 210.218 41.3378 211.698 41.3378C212.698 41.3378 213.538 40.5778 213.978 39.4978V32.5778L211.898 33.5378C210.098 34.3778 209.138 35.8578 209.138 38.0178Z" fill="#161613"/>
<path d="M230.938 27.4978C230.938 25.8978 230.218 25.0578 228.858 25.0578C227.698 25.0578 226.378 25.6978 225.578 26.6578V40.7378C225.578 41.8178 225.898 42.2178 226.898 42.3778V43.6978H220.658V42.3778C221.658 42.2178 221.978 41.8178 221.978 40.7378V25.3778L220.738 24.6578V23.6178L224.418 22.2178H225.738L225.618 25.0178C226.978 23.2178 228.578 22.2178 230.178 22.2178C232.938 22.2178 234.538 23.9778 234.538 27.0178V40.7378C234.538 41.8578 234.858 42.2178 235.858 42.3778V43.6978H229.618V42.3778C230.618 42.2178 230.938 41.8178 230.938 40.7378V27.4978Z" fill="#161613"/>
<path d="M246.589 23.6978V14.5378L245.389 13.8178V12.8178L249.069 11.2578H250.389L250.189 15.2578V40.0178C250.189 40.8178 250.469 41.1778 251.189 41.3378L251.549 41.4178V42.7378L247.629 44.1378H246.629L246.749 40.7378C245.909 42.8178 244.269 44.1378 242.549 44.1378C238.949 44.1378 236.709 39.9778 236.709 33.2978C236.709 26.8578 239.509 22.2178 243.429 22.2178C244.669 22.2178 245.949 22.8178 246.589 23.6978ZM240.509 32.7378C240.509 38.3378 241.629 41.3378 243.669 41.3378C244.789 41.3378 245.749 40.6178 246.589 39.0978V27.4178C246.589 25.4178 245.549 24.1378 243.829 24.1378C241.629 24.1378 240.509 27.0578 240.509 32.7378Z" fill="#161613"/>
<path d="M154.581 29.9378H152.781V40.1378C152.781 41.5378 153.381 42.0578 154.861 42.2178V43.6978H147.221V42.2178C148.421 42.0978 148.901 41.6578 148.901 40.5378V15.6578C148.901 14.5378 148.421 14.0978 147.221 13.9778V12.4978H154.101C159.101 12.4978 162.621 16.0578 162.621 21.0178C162.621 26.3378 159.381 29.9378 154.581 29.9378ZM152.781 28.0978H154.061C157.021 28.0978 158.581 25.7778 158.581 21.2178C158.581 17.0578 156.781 14.3778 154.101 14.3778H152.781V28.0978Z" stroke="#161613" stroke-width="0.4" mask="url(#path-3-outside-1_3119_1208)"/>
<path d="M168.822 44.1378C164.742 44.1378 162.022 39.8578 162.022 33.3778C162.022 26.6978 164.902 22.2178 169.222 22.2178C173.302 22.2178 176.022 26.4578 176.022 32.9378C176.022 39.6578 173.142 44.1378 168.822 44.1378ZM169.222 42.2578C171.182 42.2578 172.222 39.2978 172.222 33.6978C172.222 27.6578 170.942 24.0578 168.822 24.0578C166.862 24.0578 165.822 27.0178 165.822 32.6178C165.822 38.6578 167.102 42.2578 169.222 42.2578Z" stroke="#161613" stroke-width="0.4" mask="url(#path-3-outside-1_3119_1208)"/>
<path d="M182.297 40.6578C182.297 41.8578 182.617 42.2178 183.937 42.3778V43.6978H177.377V42.3778C178.377 42.2178 178.697 41.8178 178.697 40.7378V25.3778L177.457 24.6578V23.6178L181.137 22.2178H182.457L182.337 26.9778C183.297 24.1778 184.577 22.2178 185.937 22.2178C186.457 22.2178 186.777 22.3778 186.977 22.6978V26.5378H186.177C184.497 26.5378 183.217 27.2978 182.297 28.7778V40.6578Z" stroke="#161613" stroke-width="0.4" mask="url(#path-3-outside-1_3119_1208)"/>
<path d="M191.804 18.3378H193.204V22.6178H196.444V25.0178H193.204V39.2978C193.204 40.8178 194.004 41.7378 195.324 41.7378C196.044 41.7378 196.524 41.5778 197.084 41.1778V43.0978C196.164 43.8578 195.364 44.1378 194.044 44.1378C191.364 44.1378 189.604 42.3378 189.604 39.5778V25.0178H187.604V23.6178C189.724 22.0178 190.764 20.6178 191.804 18.3378Z" stroke="#161613" stroke-width="0.4" mask="url(#path-3-outside-1_3119_1208)"/>
<path d="M204.275 43.6978H198.035V42.3778C199.035 42.2178 199.355 41.8178 199.355 40.7378V14.5378L198.115 13.8178V12.8178L201.795 11.2578H203.115L202.955 15.2578V40.7378C202.955 41.8178 203.275 42.2178 204.275 42.3778V43.6978Z" stroke="#161613" stroke-width="0.4" mask="url(#path-3-outside-1_3119_1208)"/>
<path d="M217.098 43.9778C215.578 43.9778 214.578 42.8978 214.418 41.2178C213.578 43.1378 212.138 44.1378 210.178 44.1378C207.418 44.1378 205.498 41.9378 205.498 38.8578C205.498 35.6178 206.778 33.8978 210.498 32.2578L213.978 30.7378V28.1378C213.978 25.3378 213.218 24.0578 211.618 24.0578C210.218 24.0578 209.418 25.1378 209.418 27.1778V29.3778H207.018C206.458 28.9778 206.018 28.0578 206.018 27.2178C206.018 24.3378 208.458 22.2178 211.858 22.2178C215.258 22.2178 217.578 24.6178 217.578 28.1778V40.4978C217.578 41.1378 217.938 41.5378 218.498 41.5378C218.818 41.5378 219.178 41.4178 219.458 41.2178V42.8578C218.938 43.5778 218.098 43.9778 217.098 43.9778ZM209.138 38.0178C209.138 39.9778 210.218 41.3378 211.698 41.3378C212.698 41.3378 213.538 40.5778 213.978 39.4978V32.5778L211.898 33.5378C210.098 34.3778 209.138 35.8578 209.138 38.0178Z" stroke="#161613" stroke-width="0.4" mask="url(#path-3-outside-1_3119_1208)"/>
<path d="M230.938 27.4978C230.938 25.8978 230.218 25.0578 228.858 25.0578C227.698 25.0578 226.378 25.6978 225.578 26.6578V40.7378C225.578 41.8178 225.898 42.2178 226.898 42.3778V43.6978H220.658V42.3778C221.658 42.2178 221.978 41.8178 221.978 40.7378V25.3778L220.738 24.6578V23.6178L224.418 22.2178H225.738L225.618 25.0178C226.978 23.2178 228.578 22.2178 230.178 22.2178C232.938 22.2178 234.538 23.9778 234.538 27.0178V40.7378C234.538 41.8578 234.858 42.2178 235.858 42.3778V43.6978H229.618V42.3778C230.618 42.2178 230.938 41.8178 230.938 40.7378V27.4978Z" stroke="#161613" stroke-width="0.4" mask="url(#path-3-outside-1_3119_1208)"/>
<path d="M246.589 23.6978V14.5378L245.389 13.8178V12.8178L249.069 11.2578H250.389L250.189 15.2578V40.0178C250.189 40.8178 250.469 41.1778 251.189 41.3378L251.549 41.4178V42.7378L247.629 44.1378H246.629L246.749 40.7378C245.909 42.8178 244.269 44.1378 242.549 44.1378C238.949 44.1378 236.709 39.9778 236.709 33.2978C236.709 26.8578 239.509 22.2178 243.429 22.2178C244.669 22.2178 245.949 22.8178 246.589 23.6978ZM240.509 32.7378C240.509 38.3378 241.629 41.3378 243.669 41.3378C244.789 41.3378 245.749 40.6178 246.589 39.0978V27.4178C246.589 25.4178 245.549 24.1378 243.829 24.1378C241.629 24.1378 240.509 27.0578 240.509 32.7378Z" stroke="#161613" stroke-width="0.4" mask="url(#path-3-outside-1_3119_1208)"/>
<mask id="path-4-outside-2_3119_1208" maskUnits="userSpaceOnUse" x="146.219" y="47.8799" width="89" height="33" fill="black">
<rect fill="white" x="146.219" y="47.8799" width="89" height="33"/>
<path d="M154.579 66.3199H152.779V76.5199C152.779 77.9199 153.379 78.4399 154.859 78.5999V80.0799H147.219V78.5999C148.419 78.4799 148.899 78.0399 148.899 76.9199V52.0399C148.899 50.9199 148.419 50.4799 147.219 50.3599V48.8799H154.099C159.099 48.8799 162.619 52.4399 162.619 57.3999C162.619 62.7199 159.379 66.3199 154.579 66.3199ZM152.779 64.4799H154.059C157.019 64.4799 158.579 62.1599 158.579 57.5999C158.579 53.4399 156.779 50.7599 154.099 50.7599H152.779V64.4799Z"/>
<path d="M169.943 80.0799H163.703V78.7599C164.703 78.5999 165.023 78.1999 165.023 77.1199V61.7599L163.783 61.0399V59.9999L167.463 58.5999H168.783L168.623 62.5999V77.1199C168.623 78.1999 168.943 78.5999 169.943 78.7599V80.0799ZM164.103 52.2399C164.103 50.7599 165.303 49.5599 166.743 49.5599C168.223 49.5599 169.423 50.7599 169.423 52.2399C169.423 53.6799 168.223 54.8799 166.743 54.8799C165.303 54.8799 164.103 53.6799 164.103 52.2399Z"/>
<path d="M178.119 80.5199C174.079 80.5199 171.199 76.1199 171.199 69.8799C171.199 63.1199 174.119 58.5999 178.599 58.5999C181.439 58.5999 183.639 60.5599 183.639 63.3999C183.639 64.6399 183.119 65.2799 182.319 65.7599H180.239V64.2799C180.239 61.7599 179.559 60.4399 178.159 60.4399C176.119 60.4399 174.919 63.5199 174.919 68.9199C174.919 74.4799 176.479 77.7199 179.159 77.7199C180.839 77.7199 181.839 76.6799 182.439 74.3599L183.719 74.7599C183.239 78.4399 181.239 80.5199 178.119 80.5199Z"/>
<path d="M188.521 54.7199H189.921V58.9999H193.161V61.3999H189.921V75.6799C189.921 77.1999 190.721 78.1199 192.041 78.1199C192.761 78.1199 193.241 77.9599 193.801 77.5599V79.4799C192.881 80.2399 192.081 80.5199 190.761 80.5199C188.081 80.5199 186.321 78.7199 186.321 75.9599V61.3999H184.321V59.9999C186.441 58.3999 187.481 56.9999 188.521 54.7199Z"/>
<path d="M196.232 61.7999C196.232 60.8799 195.952 60.5199 195.192 60.4399L194.792 60.3599V59.1199L199.192 58.5999H200.032L199.832 62.5999V75.2399C199.832 76.7999 200.592 77.6399 201.952 77.6399C203.112 77.6399 204.352 77.0399 205.192 76.1199V61.7999C205.192 60.8799 204.912 60.5199 204.152 60.4399L203.752 60.3599V59.1199L208.112 58.5999H208.952L208.792 62.5999V76.3999C208.792 77.1999 209.032 77.5599 209.792 77.7199L210.112 77.7999V79.1199L206.232 80.5199H205.232L205.352 77.4799C203.952 79.3999 202.272 80.5199 200.592 80.5199C197.872 80.5199 196.232 78.7199 196.232 75.6799V61.7999Z"/>
<path d="M216.397 77.0399C216.397 78.2399 216.717 78.5999 218.037 78.7599V80.0799H211.477V78.7599C212.477 78.5999 212.797 78.1999 212.797 77.1199V61.7599L211.557 61.0399V59.9999L215.237 58.5999H216.557L216.437 63.3599C217.397 60.5599 218.677 58.5999 220.037 58.5999C220.557 58.5999 220.877 58.7599 221.077 59.0799V62.9199H220.277C218.597 62.9199 217.317 63.6799 216.397 65.1599V77.0399Z"/>
<path d="M228.596 80.5199C224.356 80.5199 221.356 76.1599 221.356 69.8799C221.356 63.0799 224.236 58.5999 228.636 58.5999C231.956 58.5999 234.236 62.0399 234.236 67.0399V68.0799H225.116V68.9199C225.116 74.5599 226.756 77.7199 229.676 77.7199C231.436 77.7199 232.596 76.6799 233.156 74.4399L234.436 74.8399C233.956 78.3999 231.836 80.5199 228.596 80.5199ZM225.196 66.3199H230.716C230.716 62.6399 229.836 60.4399 228.196 60.4399C226.556 60.4399 225.516 62.5599 225.196 66.3199Z"/>
</mask>
<path d="M154.579 66.3199H152.779V76.5199C152.779 77.9199 153.379 78.4399 154.859 78.5999V80.0799H147.219V78.5999C148.419 78.4799 148.899 78.0399 148.899 76.9199V52.0399C148.899 50.9199 148.419 50.4799 147.219 50.3599V48.8799H154.099C159.099 48.8799 162.619 52.4399 162.619 57.3999C162.619 62.7199 159.379 66.3199 154.579 66.3199ZM152.779 64.4799H154.059C157.019 64.4799 158.579 62.1599 158.579 57.5999C158.579 53.4399 156.779 50.7599 154.099 50.7599H152.779V64.4799Z" fill="#161613"/>
<path d="M169.943 80.0799H163.703V78.7599C164.703 78.5999 165.023 78.1999 165.023 77.1199V61.7599L163.783 61.0399V59.9999L167.463 58.5999H168.783L168.623 62.5999V77.1199C168.623 78.1999 168.943 78.5999 169.943 78.7599V80.0799ZM164.103 52.2399C164.103 50.7599 165.303 49.5599 166.743 49.5599C168.223 49.5599 169.423 50.7599 169.423 52.2399C169.423 53.6799 168.223 54.8799 166.743 54.8799C165.303 54.8799 164.103 53.6799 164.103 52.2399Z" fill="#161613"/>
<path d="M178.119 80.5199C174.079 80.5199 171.199 76.1199 171.199 69.8799C171.199 63.1199 174.119 58.5999 178.599 58.5999C181.439 58.5999 183.639 60.5599 183.639 63.3999C183.639 64.6399 183.119 65.2799 182.319 65.7599H180.239V64.2799C180.239 61.7599 179.559 60.4399 178.159 60.4399C176.119 60.4399 174.919 63.5199 174.919 68.9199C174.919 74.4799 176.479 77.7199 179.159 77.7199C180.839 77.7199 181.839 76.6799 182.439 74.3599L183.719 74.7599C183.239 78.4399 181.239 80.5199 178.119 80.5199Z" fill="#161613"/>
<path d="M188.521 54.7199H189.921V58.9999H193.161V61.3999H189.921V75.6799C189.921 77.1999 190.721 78.1199 192.041 78.1199C192.761 78.1199 193.241 77.9599 193.801 77.5599V79.4799C192.881 80.2399 192.081 80.5199 190.761 80.5199C188.081 80.5199 186.321 78.7199 186.321 75.9599V61.3999H184.321V59.9999C186.441 58.3999 187.481 56.9999 188.521 54.7199Z" fill="#161613"/>
<path d="M196.232 61.7999C196.232 60.8799 195.952 60.5199 195.192 60.4399L194.792 60.3599V59.1199L199.192 58.5999H200.032L199.832 62.5999V75.2399C199.832 76.7999 200.592 77.6399 201.952 77.6399C203.112 77.6399 204.352 77.0399 205.192 76.1199V61.7999C205.192 60.8799 204.912 60.5199 204.152 60.4399L203.752 60.3599V59.1199L208.112 58.5999H208.952L208.792 62.5999V76.3999C208.792 77.1999 209.032 77.5599 209.792 77.7199L210.112 77.7999V79.1199L206.232 80.5199H205.232L205.352 77.4799C203.952 79.3999 202.272 80.5199 200.592 80.5199C197.872 80.5199 196.232 78.7199 196.232 75.6799V61.7999Z" fill="#161613"/>
<path d="M216.397 77.0399C216.397 78.2399 216.717 78.5999 218.037 78.7599V80.0799H211.477V78.7599C212.477 78.5999 212.797 78.1999 212.797 77.1199V61.7599L211.557 61.0399V59.9999L215.237 58.5999H216.557L216.437 63.3599C217.397 60.5599 218.677 58.5999 220.037 58.5999C220.557 58.5999 220.877 58.7599 221.077 59.0799V62.9199H220.277C218.597 62.9199 217.317 63.6799 216.397 65.1599V77.0399Z" fill="#161613"/>
<path d="M228.596 80.5199C224.356 80.5199 221.356 76.1599 221.356 69.8799C221.356 63.0799 224.236 58.5999 228.636 58.5999C231.956 58.5999 234.236 62.0399 234.236 67.0399V68.0799H225.116V68.9199C225.116 74.5599 226.756 77.7199 229.676 77.7199C231.436 77.7199 232.596 76.6799 233.156 74.4399L234.436 74.8399C233.956 78.3999 231.836 80.5199 228.596 80.5199ZM225.196 66.3199H230.716C230.716 62.6399 229.836 60.4399 228.196 60.4399C226.556 60.4399 225.516 62.5599 225.196 66.3199Z" fill="#161613"/>
<path d="M154.579 66.3199H152.779V76.5199C152.779 77.9199 153.379 78.4399 154.859 78.5999V80.0799H147.219V78.5999C148.419 78.4799 148.899 78.0399 148.899 76.9199V52.0399C148.899 50.9199 148.419 50.4799 147.219 50.3599V48.8799H154.099C159.099 48.8799 162.619 52.4399 162.619 57.3999C162.619 62.7199 159.379 66.3199 154.579 66.3199ZM152.779 64.4799H154.059C157.019 64.4799 158.579 62.1599 158.579 57.5999C158.579 53.4399 156.779 50.7599 154.099 50.7599H152.779V64.4799Z" stroke="#161613" stroke-width="0.4" mask="url(#path-4-outside-2_3119_1208)"/>
<path d="M169.943 80.0799H163.703V78.7599C164.703 78.5999 165.023 78.1999 165.023 77.1199V61.7599L163.783 61.0399V59.9999L167.463 58.5999H168.783L168.623 62.5999V77.1199C168.623 78.1999 168.943 78.5999 169.943 78.7599V80.0799ZM164.103 52.2399C164.103 50.7599 165.303 49.5599 166.743 49.5599C168.223 49.5599 169.423 50.7599 169.423 52.2399C169.423 53.6799 168.223 54.8799 166.743 54.8799C165.303 54.8799 164.103 53.6799 164.103 52.2399Z" stroke="#161613" stroke-width="0.4" mask="url(#path-4-outside-2_3119_1208)"/>
<path d="M178.119 80.5199C174.079 80.5199 171.199 76.1199 171.199 69.8799C171.199 63.1199 174.119 58.5999 178.599 58.5999C181.439 58.5999 183.639 60.5599 183.639 63.3999C183.639 64.6399 183.119 65.2799 182.319 65.7599H180.239V64.2799C180.239 61.7599 179.559 60.4399 178.159 60.4399C176.119 60.4399 174.919 63.5199 174.919 68.9199C174.919 74.4799 176.479 77.7199 179.159 77.7199C180.839 77.7199 181.839 76.6799 182.439 74.3599L183.719 74.7599C183.239 78.4399 181.239 80.5199 178.119 80.5199Z" stroke="#161613" stroke-width="0.4" mask="url(#path-4-outside-2_3119_1208)"/>
<path d="M188.521 54.7199H189.921V58.9999H193.161V61.3999H189.921V75.6799C189.921 77.1999 190.721 78.1199 192.041 78.1199C192.761 78.1199 193.241 77.9599 193.801 77.5599V79.4799C192.881 80.2399 192.081 80.5199 190.761 80.5199C188.081 80.5199 186.321 78.7199 186.321 75.9599V61.3999H184.321V59.9999C186.441 58.3999 187.481 56.9999 188.521 54.7199Z" stroke="#161613" stroke-width="0.4" mask="url(#path-4-outside-2_3119_1208)"/>
<path d="M196.232 61.7999C196.232 60.8799 195.952 60.5199 195.192 60.4399L194.792 60.3599V59.1199L199.192 58.5999H200.032L199.832 62.5999V75.2399C199.832 76.7999 200.592 77.6399 201.952 77.6399C203.112 77.6399 204.352 77.0399 205.192 76.1199V61.7999C205.192 60.8799 204.912 60.5199 204.152 60.4399L203.752 60.3599V59.1199L208.112 58.5999H208.952L208.792 62.5999V76.3999C208.792 77.1999 209.032 77.5599 209.792 77.7199L210.112 77.7999V79.1199L206.232 80.5199H205.232L205.352 77.4799C203.952 79.3999 202.272 80.5199 200.592 80.5199C197.872 80.5199 196.232 78.7199 196.232 75.6799V61.7999Z" stroke="#161613" stroke-width="0.4" mask="url(#path-4-outside-2_3119_1208)"/>
<path d="M216.397 77.0399C216.397 78.2399 216.717 78.5999 218.037 78.7599V80.0799H211.477V78.7599C212.477 78.5999 212.797 78.1999 212.797 77.1199V61.7599L211.557 61.0399V59.9999L215.237 58.5999H216.557L216.437 63.3599C217.397 60.5599 218.677 58.5999 220.037 58.5999C220.557 58.5999 220.877 58.7599 221.077 59.0799V62.9199H220.277C218.597 62.9199 217.317 63.6799 216.397 65.1599V77.0399Z" stroke="#161613" stroke-width="0.4" mask="url(#path-4-outside-2_3119_1208)"/>
<path d="M228.596 80.5199C224.356 80.5199 221.356 76.1599 221.356 69.8799C221.356 63.0799 224.236 58.5999 228.636 58.5999C231.956 58.5999 234.236 62.0399 234.236 67.0399V68.0799H225.116V68.9199C225.116 74.5599 226.756 77.7199 229.676 77.7199C231.436 77.7199 232.596 76.6799 233.156 74.4399L234.436 74.8399C233.956 78.3999 231.836 80.5199 228.596 80.5199ZM225.196 66.3199H230.716C230.716 62.6399 229.836 60.4399 228.196 60.4399C226.556 60.4399 225.516 62.5599 225.196 66.3199Z" stroke="#161613" stroke-width="0.4" mask="url(#path-4-outside-2_3119_1208)"/>
<rect x="238.67" y="52.2578" width="25.7598" height="18.3761" rx="3.92759" fill="#161613"/>
<path d="M259.853 63.7666C260.646 63.7668 261.29 64.4104 261.29 65.2041C261.29 66.001 260.643 66.6229 259.853 66.623C259.079 66.623 258.434 65.9995 258.434 65.2041C258.434 64.4119 259.076 63.7666 259.853 63.7666Z" fill="#E15B3D"/>
<path fill-rule="evenodd" clip-rule="evenodd" d="M246.79 55.4131C248.376 55.4131 249.627 56.5153 249.627 58.1221C249.627 58.4747 249.553 58.7556 249.412 58.9854C249.272 59.2141 249.073 59.3791 248.847 59.5146L248.808 59.5381H247.495V58.5889C247.495 57.9307 247.405 57.4546 247.241 57.1484C247.161 56.9978 247.064 56.8916 246.955 56.8232C246.846 56.7553 246.716 56.7188 246.558 56.7188C246.121 56.7188 245.733 57.0432 245.447 57.7861C245.164 58.5246 245.005 59.6254 245.005 61.0479C245.005 62.5098 245.21 63.6482 245.579 64.4141C245.945 65.1746 246.46 65.5477 247.087 65.5479C247.494 65.5479 247.804 65.4236 248.053 65.168C248.307 64.9061 248.51 64.4931 248.666 63.8906L248.71 63.7227L248.875 63.7744L249.554 63.9863L249.686 64.0273L249.668 64.165C249.538 65.164 249.198 65.9644 248.663 66.5166C248.125 67.0715 247.402 67.3613 246.536 67.3613C245.398 67.3613 244.433 66.7393 243.761 65.707C243.09 64.6773 242.703 63.2335 242.703 61.5566C242.703 59.7441 243.094 58.2152 243.801 57.1338C244.51 56.0478 245.539 55.4132 246.79 55.4131ZM245.962 67.1396L245.983 67.1426C245.962 67.1383 245.94 67.1337 245.919 67.1289C245.933 67.1322 245.947 67.1367 245.962 67.1396ZM246.457 56.5586C246.452 56.559 246.448 56.56 246.443 56.5605C246.481 56.5563 246.519 56.5537 246.558 56.5537C246.524 56.5537 246.49 56.5554 246.457 56.5586Z" fill="#F6F4EF"/>
<path fill-rule="evenodd" clip-rule="evenodd" d="M253.725 55.4131C254.872 55.4132 255.821 56.0131 256.477 57.043C257.129 58.0684 257.493 59.5224 257.493 61.2598C257.493 63.0616 257.108 64.5801 256.418 65.6533C255.725 66.7308 254.722 67.3613 253.512 67.3613C252.364 67.3612 251.415 66.7564 250.76 65.7217C250.107 64.691 249.743 63.2309 249.743 61.4932C249.743 59.7021 250.129 58.1896 250.818 57.1191C251.511 56.0444 252.514 55.4131 253.725 55.4131ZM253.512 56.7188C253.1 56.719 252.743 57.0224 252.483 57.7637C252.225 58.5006 252.087 59.6129 252.087 61.0908C252.087 62.6831 252.257 63.9392 252.558 64.791C252.863 65.6554 253.276 66.0352 253.725 66.0352C254.136 66.0349 254.493 65.7314 254.753 64.9902C255.011 64.2533 255.149 63.1411 255.149 61.6631C255.149 60.0707 254.98 58.8148 254.679 57.9629C254.373 57.0984 253.96 56.7188 253.512 56.7188Z" fill="#F6F4EF"/>
</svg>
